<svg width="885" height="593" viewBox="0 0 885 593" fill="none" xmlns="http://www.w3.org/2000/svg">
<path d="M561.253 520.103H543.494V492.6H547.03V516.999H561.253V520.103ZM574.472 520.574C567.479 520.574 563.746 517.196 563.746 511.027V492.6H567.321V511.027C567.321 515.388 570.661 517.431 574.472 517.431C578.283 517.431 581.662 515.388 581.662 511.027V492.6H585.238V511.027C585.238 517.196 581.466 520.574 574.472 520.574ZM595.069 520.103H591.493V492.6H595.069V520.103ZM620.404 520.103H599.109V517.471L612.075 500.419C613.096 499.083 614.589 497.276 615.846 495.783V495.743C614.078 495.783 612.467 495.861 610.582 495.861H600.288V492.6H620.129V495.233L606.967 512.677C605.749 514.288 604.374 515.978 603.588 516.921V516.96C605.513 516.881 608.735 516.842 609.521 516.842H620.404V520.103ZM637.043 520.103H633.507V492.6H642.779C647.691 492.6 653.623 493.465 653.623 500.93C653.623 508.159 647.691 508.945 642.74 508.945H637.043V520.103ZM637.043 495.665V505.919H642.74C646.119 505.919 650.166 505.684 650.166 500.93C650.166 495.743 646.119 495.665 642.779 495.665H637.043ZM678.149 520.103H674.416L671.352 511.891H659.683L656.657 520.103H652.885L663.651 492.6H667.423L678.149 520.103ZM663.926 500.458L660.861 508.748H670.173L667.069 500.458C666.519 499.004 665.89 497.197 665.497 496.018H665.458C664.987 497.472 664.554 498.729 663.926 500.458ZM691.535 520.574C684.542 520.574 680.809 517.196 680.809 511.027V492.6H684.385V511.027C684.385 515.388 687.724 517.431 691.535 517.431C695.347 517.431 698.725 515.388 698.725 511.027V492.6H702.301V511.027C702.301 517.196 698.529 520.574 691.535 520.574ZM726.315 520.103H708.556V492.6H712.093V516.999H726.315V520.103ZM740.095 520.574C731.766 520.574 727.051 515.506 727.051 506.352C727.051 498.022 731.648 492.129 740.095 492.129C748.424 492.129 753.1 498.061 753.1 506.352C753.1 514.76 748.424 520.574 740.095 520.574ZM740.095 517.51C743.356 517.51 745.556 516.488 746.971 514.445C748.346 512.481 749.092 509.888 749.092 506.352C749.092 502.776 748.346 500.262 746.971 498.297C745.556 496.254 743.356 495.193 740.252 495.193C736.677 495.193 734.319 496.608 733.141 498.14C731.805 499.908 731.058 502.816 731.058 506.352C731.058 510.163 731.962 513.07 733.023 514.445C734.555 516.41 736.991 517.51 740.095 517.51ZM565.575 555.103H561.842L558.778 546.891H547.108L544.083 555.103H540.311L551.077 527.6H554.849L565.575 555.103ZM551.352 535.458L548.287 543.748H557.599L554.495 535.458C553.945 534.004 553.316 532.197 552.923 531.018H552.884C552.413 532.472 551.98 533.729 551.352 535.458ZM572.468 555.103H568.971V527.6H572.782L583.115 544.22C584.215 545.988 585.433 548.267 586.572 550.428H586.612C586.494 548.149 586.415 544.573 586.415 543.434V527.6H589.912V555.103H585.905L575.689 538.483C575.061 537.462 573.371 534.358 572.31 532.276H572.271C572.389 534.908 572.468 538.523 572.468 539.269V555.103ZM605.794 555.103H596.443V527.6H605.794C614.123 527.6 618.838 533.101 618.838 541.352C618.838 549.956 613.966 555.103 605.794 555.103ZM599.979 530.665V552.038H605.401C608.976 552.038 611.609 550.978 612.866 549.131C614.241 547.166 614.83 544.927 614.83 541.352C614.83 537.737 614.241 535.576 612.866 533.612C611.53 531.686 608.819 530.665 605.401 530.665H599.979ZM643.249 548.227C643.249 551.41 643.485 553.296 644.821 554.985L644.781 555.103H640.892C639.988 553.728 639.713 552.431 639.713 548.62C639.713 544.966 638.259 543.709 633.427 543.709H627.297V555.103H623.761V527.6H633.073C637.945 527.6 643.917 528.229 643.917 535.694C643.917 539.073 642.07 541.587 639.674 542.412C642.267 543.395 643.249 545.398 643.249 548.227ZM627.297 540.684H633.034C636.413 540.684 640.42 540.409 640.42 535.851C640.42 530.665 636.413 530.665 633.073 530.665H627.297V540.684ZM671.856 555.103H668.124L665.059 546.891H653.39L650.365 555.103H646.593L657.358 527.6H661.13L671.856 555.103ZM657.633 535.458L654.569 543.748H663.88L660.777 535.458C660.226 534.004 659.598 532.197 659.205 531.018H659.166C658.694 532.472 658.262 533.729 657.633 535.458ZM684.603 555.103H675.252V527.6H684.603C692.933 527.6 697.647 533.101 697.647 541.352C697.647 549.956 692.776 555.103 684.603 555.103ZM678.788 530.665V552.038H684.21C687.786 552.038 690.418 550.978 691.675 549.131C693.051 547.166 693.64 544.927 693.64 541.352C693.64 537.737 693.051 535.576 691.675 533.612C690.34 531.686 687.629 530.665 684.21 530.665H678.788ZM720.33 555.103H702.571V527.6H720.33V530.783H706.107V539.623H718.876V542.805H706.107V551.921H720.33V555.103ZM565.575 590.103H561.842L558.778 581.891H547.108L544.083 590.103H540.311L551.077 562.6H554.849L565.575 590.103ZM551.352 570.458L548.287 578.748H557.599L554.495 570.458C553.945 569.004 553.316 567.197 552.923 566.018H552.884C552.413 567.472 551.98 568.729 551.352 570.458ZM588.458 583.227C588.458 586.41 588.694 588.296 590.03 589.985L589.991 590.103H586.101C585.197 588.728 584.922 587.431 584.922 583.62C584.922 579.966 583.469 578.709 578.636 578.709H572.507V590.103H568.971V562.6H578.282C583.154 562.6 589.126 563.229 589.126 570.694C589.126 574.073 587.28 576.587 584.883 577.412C587.476 578.395 588.458 580.398 588.458 583.227ZM572.507 575.684H578.243C581.622 575.684 585.63 575.409 585.63 570.851C585.63 565.665 581.622 565.665 578.282 565.665H572.507V575.684ZM619.423 576.352C619.423 581.027 618.087 584.76 615.376 587.313L618.834 590.064L616.83 592.5L612.744 589.199C610.897 590.182 608.736 590.574 606.418 590.574C598.089 590.574 593.374 585.506 593.374 576.352C593.374 568.022 597.971 562.129 606.418 562.129C614.747 562.129 619.423 568.061 619.423 576.352ZM599.346 584.485C600.878 586.449 603.314 587.549 606.418 587.549C607.832 587.549 609.05 587.431 610.072 587.038L606.693 584.327L608.736 581.852L612.783 585.113C614.63 583.345 615.415 579.573 615.415 576.352C615.415 572.776 614.669 570.301 613.294 568.337C611.879 566.293 609.679 565.233 606.575 565.233C603 565.233 600.642 566.647 599.464 568.179C598.128 569.947 597.381 572.816 597.381 576.352C597.381 580.163 598.285 583.109 599.346 584.485ZM634.826 590.574C627.833 590.574 624.1 587.196 624.1 581.027V562.6H627.676V581.027C627.676 585.388 631.015 587.431 634.826 587.431C638.637 587.431 642.016 585.388 642.016 581.027V562.6H645.592V581.027C645.592 587.196 641.82 590.574 634.826 590.574ZM655.423 590.103H651.847V562.6H655.423V590.103ZM671.721 590.103H668.146V565.704H658.992V562.6H680.876V565.704H671.721V590.103ZM702.22 590.103H684.461V562.6H702.22V565.783H687.997V574.623H700.766V577.805H687.997V586.921H702.22V590.103ZM717.112 590.103H713.536V565.704H704.382V562.6H726.266V565.704H717.112V590.103ZM740.018 590.574C731.689 590.574 726.974 585.506 726.974 576.352C726.974 568.022 731.571 562.129 740.018 562.129C748.348 562.129 753.023 568.061 753.023 576.352C753.023 584.76 748.348 590.574 740.018 590.574ZM740.018 587.51C743.279 587.51 745.48 586.488 746.894 584.445C748.269 582.481 749.016 579.888 749.016 576.352C749.016 572.776 748.269 570.262 746.894 568.297C745.48 566.254 743.279 565.193 740.175 565.193C736.6 565.193 734.243 566.608 733.064 568.14C731.728 569.908 730.982 572.816 730.982 576.352C730.982 580.163 731.885 583.07 732.946 584.445C734.478 586.41 736.914 587.51 740.018 587.51ZM767.328 590.574C761.278 590.574 755.974 587.549 755.974 581.145L759.745 580.752C759.745 585.152 762.967 587.588 767.21 587.588C771.257 587.588 774.715 586.37 774.715 582.363C774.715 578.552 769.843 578.63 765.717 577.648C761.435 576.627 756.72 575.134 756.72 569.869C756.72 564.25 761.985 562.129 766.464 562.129C772.161 562.129 776.836 564.368 777.426 570.89L773.732 571.558C773.654 567.433 770.904 565.075 766.385 565.075C763.714 565.075 760.374 566.49 760.374 569.712C760.374 572.816 764.539 573.798 768.271 574.387C773.732 575.252 778.408 576.234 778.408 582.088C778.408 588.767 772.632 590.574 767.328 590.574ZM787.157 559.318C790.811 559.318 793.639 562.1 793.639 565.896C793.639 569.62 790.811 572.425 787.157 572.425C783.55 572.425 780.745 569.62 780.745 565.896C780.745 562.1 783.55 559.318 787.157 559.318ZM787.157 571.483C790.268 571.483 792.579 569.102 792.579 565.896C792.579 562.642 790.268 560.238 787.157 560.238C784.092 560.238 781.782 562.642 781.782 565.896C781.782 569.102 784.092 571.483 787.157 571.483ZM790.009 567.593C790.009 568.63 790.103 569.007 790.481 569.361V569.549H789.16C788.854 569.102 788.83 568.701 788.783 567.522C788.76 566.838 788.453 566.579 787.109 566.579H785.86V569.549H784.611V562.077H787.675C788.83 562.077 790.174 562.642 790.174 564.316C790.174 565.118 789.797 565.707 789.208 566.061C789.773 566.367 790.009 566.956 790.009 567.593ZM785.86 563.208V565.471H787.392C788.265 565.471 788.925 565.306 788.925 564.316C788.925 563.444 788.265 563.208 787.392 563.208H785.86Z" fill="black"/>
<path d="M369.477 532.526H371.003V531V171.893H427.707V531V589.23H369.477H1.52567V532.526H369.477Z" stroke="black" stroke-width="3.05135"/>
<path d="M598.075 360.633V362.158H599.601H883.474V418.863H541.371V360.633V59.7275V58.2018H539.845H255.324H253.799V59.7275V418.863H197.122V59.7275V1.52567H255.324H539.845H598.075V59.7275V360.633Z" stroke="black" stroke-width="3.05135"/>
</svg>
